# xmcd
#
# Track frame offsets:
#	150
#	9264
#	19230
#	34174
#	44077
#	52492
#	61030
#	71889
#	79973
#	90401
#
# Disc length: 1333 seconds
#
# Revision: 0
# Processed by: cddbd v1.5.2PL0 Copyright (c) Steve Scherf et al.
# Submitted via: EasyCDDAExtractor 12.0.4.1
#
DISCID=8605330a
DTITLE=The Rollin´ Miles - Hot Rock !
DYEAR=2005
DGENRE=Rockabilly
TTITLE0=Hot Rock
TTITLE1=Foolish Thoughts
TTITLE2=Wild Wild Lover
TTITLE3=Devil Woman
TTITLE4=Need Your Kind Of Love
TTITLE5=Mean Little Mama
TTITLE6=When My Baby Left Me
TTITLE7=Caterpillar
TTITLE8=Unclassed Woman
TTITLE9=Right Behind You Baby
EXTD=
EXTT0=
EXTT1=
EXTT2=
EXTT3=
EXTT4=
EXTT5=
EXTT6=
EXTT7=
EXTT8=
EXTT9=
PLAYORDER=
